<?xml version="1.0" encoding="iso-8859-1"?>
<!-- Uploaded to: SVG Repo, www.svgrepo.com, Generator: SVG Repo Mixer Tools -->
<svg fill="#000000" height="800px" width="800px" version="1.1" id="Layer_1" xmlns="http://www.w3.org/2000/svg" xmlns:xlink="http://www.w3.org/1999/xlink" 
	 viewBox="0 0 512 512" xml:space="preserve">
<g>
	<g>
		<path d="M256.001,39.377c-64.157,0-116.353,52.196-116.353,116.353s52.196,116.353,116.353,116.353
			s116.353-52.196,116.353-116.353S320.158,39.377,256.001,39.377z M256.001,255.686c-55.116,0-99.956-44.84-99.956-99.956
			c0-55.116,44.84-99.956,99.956-99.956s99.956,44.84,99.956,99.956C355.956,210.846,311.116,255.686,256.001,255.686z"/>
	</g>
</g>
<g>
	<g>
		<path d="M411.73,155.731c0-34.204-10.879-66.665-31.462-93.873c-2.731-3.611-7.874-4.325-11.485-1.592
			c-3.612,2.732-4.325,7.874-1.593,11.485c18.411,24.336,28.142,53.377,28.142,83.98c0,76.828-62.505,139.333-139.333,139.333
			s-139.333-62.505-139.333-139.333S179.172,16.398,256.001,16.398c33.217,0,65.386,11.882,90.58,33.456
			c3.441,2.946,8.615,2.544,11.559-0.894c2.945-3.439,2.545-8.615-0.894-11.56C329.083,13.282,293.127,0,256.001,0
			C170.13,0,100.27,69.861,100.27,155.731c0,66.004,41.277,122.542,99.371,145.173c-6.706,5.219-11.031,13.357-11.031,22.493
			c0,15.713,12.784,28.497,28.497,28.497h7.986c-4.07,5.982-6.453,13.199-6.453,20.964v22.722c0,4.528,3.671,8.199,8.199,8.199
			c4.528,0,8.199-3.671,8.199-8.199v-22.722c0-11.559,9.405-20.964,20.964-20.964s20.964,9.405,20.964,20.964V474.64
			c0,11.559-9.405,20.964-20.964,20.964s-20.964-9.405-20.964-20.964v-49.547c0-4.528-3.671-8.199-8.199-8.199
			c-4.528,0-8.199,3.671-8.199,8.199v49.546c0,20.601,16.761,37.361,37.362,37.361s37.361-16.761,37.361-37.361V372.856
			c0-7.765-2.383-14.982-6.453-20.964h7.986c15.713,0,28.496-12.784,28.496-28.497c0-9.136-4.327-17.275-11.033-22.494
			C370.453,278.27,411.73,221.734,411.73,155.731z M294.896,335.495h-77.788c-6.672,0-12.099-5.428-12.099-12.099
			c0-6.672,5.428-12.098,12.099-12.098h77.788c6.672,0,12.098,5.428,12.098,12.098C306.994,330.067,301.566,335.495,294.896,335.495
			z"/>
	</g>
</g>
</svg>